<?xml version="1.0" encoding="utf-8"?>
<!-- Generator: Adobe Illustrator 22.0.1, SVG Export Plug-In . SVG Version: 6.00 Build 0)  -->
<svg version="1.1" id="Layer_1" xmlns="http://www.w3.org/2000/svg" xmlns:xlink="http://www.w3.org/1999/xlink" x="0px" y="0px"
	 viewBox="0 0 175 242" style="enable-background:new 0 0 175 242;" xml:space="preserve">
<path d="M130.7,148.9H43.9C23.9,134.7,12,111.9,12,87.4c0-41.5,33.8-75.3,75.3-75.3c41.5,0,75.3,33.8,75.3,75.3
	C162.6,111.9,150.7,134.7,130.7,148.9z M125.9,188.2c0,10.7-8.7,19.2-19.2,19.2c-41.4,0-39,0-40.4-0.1c0,0,0,0,0,0
	c-5.9-0.5-11-3.7-14.1-8.3h18.7c3.3,0,6-2.7,6-6c0-3.3-2.7-6-6-6H48.7v-5.9h38.6c3.3,0,6-2.7,6-6c0-3.3-2.7-6-6-6H48.7v-8.3h77.2
	V188.2z M87.3,229c-6.5,0-12-3.9-14.4-9.6h28.7C99.3,225.1,93.7,229,87.3,229z M87.3,0.1C39.2,0.1,0,39.2,0,87.4
	c0,28.4,13.7,54.7,36.7,71.1v29.7c0,14.6,10,26.8,23.5,30.3c2.4,12.8,13.6,22.5,27.1,22.5c13.5,0,24.7-9.7,27.1-22.5
	c13.5-3.5,23.5-15.7,23.5-30.3v-29.7c23-16.4,36.7-42.7,36.7-71.1C174.6,39.2,135.4,0.1,87.3,0.1z M85.7,116.6L90.1,95
	c1.1-5.3-3-10.3-8.4-10.3H61.4l27.4-39.9l-4.4,21.6c-1.1,5.3,3,10.3,8.4,10.3h20.3L85.7,116.6z M119.6,64.7H97l6.9-33.9
	c1.9-9.1-10.2-14.3-15.5-6.6l-40.6,59C43.9,89,48,96.7,54.9,96.7h22.6l-6.9,33.9c-1.9,9.1,10.2,14.3,15.5,6.6l40.6-59
	C130.6,72.4,126.5,64.7,119.6,64.7z"/>
</svg>
