<?xml version="1.0" encoding="utf-8"?>
<!-- Generator: Adobe Illustrator 22.0.1, SVG Export Plug-In . SVG Version: 6.00 Build 0)  -->
<svg version="1.1" id="Layer_1" xmlns="http://www.w3.org/2000/svg" xmlns:xlink="http://www.w3.org/1999/xlink" x="0px" y="0px"
	 viewBox="0 0 392 358" style="enable-background:new 0 0 392 358;" xml:space="preserve">
<g>
	<defs>
		<rect id="SVGID_1_" x="0.1" y="0" width="391.9" height="358"/>
	</defs>
	<clipPath id="SVGID_2_">
		<use xlink:href="#SVGID_1_"  style="overflow:visible;"/>
	</clipPath>
</g>
<path d="M249.7,220.5c1,1,1.2,2.2,1.2,2.8c0,0.6-0.2,1.8-1.2,2.8l-23.6,23.6c-1.6,1.6-4.1,1.6-5.7,0l-20.1-20
	c5.8-3.6,11.4-7.8,16.4-12.9c5-5,9.3-10.6,12.9-16.4L249.7,220.5z M103.9,203l-44.2-44.2l99-99l44.1,44.1c27.3,27.3,27.3,71.7,0,99
	C175.6,230.3,131.2,230.3,103.9,203z M216.7,90.1L172.6,46l7.9-7.9c3.8-3.8,3.8-10,0-13.8c-3.8-3.8-10-3.8-13.8,0l-32.4,32.4
	L80.6,3.1c-3.8-3.8-10-3.8-13.8,0c-3.8,3.8-3.8,10,0,13.8l53.6,53.6l-50.1,50.1L16.7,67c-3.8-3.8-10-3.8-13.8,0s-3.8,10,0,13.8
	l53.6,53.6l-32.4,32.4c-3.8,3.8-3.8,10,0,13.8c1.9,1.9,4.4,2.9,7,2.9c2.6,0,5-1,7-2.9l7.9-7.9L90,216.8
	c17.4,17.4,40.4,26.2,63.4,26.2c9.4,0,19-1.6,28-4.6l25.2,25.2c4.6,4.6,10.6,6.9,16.7,6.9c6.1,0,12.1-2.3,16.7-6.9l4.9-4.9l3,3
	c16.6,16.6,43.4,16.6,60,0l25.1-25.1c8.9-8.9,23.4-8.9,32.3,0c8.9,8.9,8.9,23.4,0,32.3l-25.1,25.2c-8,8-12.4,18.6-12.4,30
	c0,11.4,4.4,22,12.4,30c1.9,1.9,4.4,2.9,7,2.9c2.6,0,5-1,7-2.9c3.8-3.8,3.8-10,0-13.8c-4.3-4.3-6.7-10.1-6.7-16.2
	c0-6.1,2.4-11.8,6.7-16.2l25.1-25.2c16.6-16.6,16.6-43.4,0-60c-16.6-16.6-43.4-16.6-60,0l-25.1,25.1c-8.9,8.9-23.4,8.9-32.3,0l-3-3
	l4.9-4.9c4.5-4.5,6.9-10.4,6.9-16.7c0-6.3-2.5-12.2-6.9-16.7l-25.2-25.2C248.6,150.4,241.4,114.8,216.7,90.1z"/>
</svg>
