<?xml version="1.0" encoding="utf-8"?>
<!-- Generator: Adobe Illustrator 22.0.1, SVG Export Plug-In . SVG Version: 6.00 Build 0)  -->
<svg version="1.1" id="Warstwa_1" xmlns="http://www.w3.org/2000/svg" xmlns:xlink="http://www.w3.org/1999/xlink" x="0px" y="0px"
	 viewBox="0 0 392.1 389.7" style="enable-background:new 0 0 392.1 389.7;" xml:space="preserve">
<path d="M277,302.7c-1.1,2.8-4.3,4.1-7,3l-18.1-7.5c-3.2-1.4-6.9-0.2-8.8,2.6c-8.2,12.2-18.6,22.6-30.8,30.8c-2.9,1.9-4,5.6-2.6,8.8
	l7.4,18.1c1.1,2.7-0.2,5.9-3,7l-19.7,8.2c-2.7,1.1-5.9-0.2-7-3l-7.5-18.1c-1.4-3.2-4.7-5-8.1-4.3c-14.4,2.9-29,2.9-43.5,0
	c-3.4-0.6-6.8,1.1-8.1,4.3l-7.5,18.1c-1.1,2.7-4.3,4.1-7,3L86,365.6c-1.4-0.6-2.4-1.6-3-3c-0.6-1.4-0.6-2.8,0-4.2l7.5-18.1
	c1.4-3.2,0.2-6.9-2.6-8.8c-12.2-8.2-22.6-18.6-30.8-30.8c-1.9-2.9-5.6-4-8.8-2.6l-18.1,7.5c-2.8,1.1-5.9-0.2-7-3L15,283
	c-1.1-2.7,0.2-5.9,3-7l18.1-7.5c3.2-1.4,5-4.7,4.3-8.1c-2.9-14.4-2.9-29,0-43.5c0.6-3.4-1.1-6.8-4.3-8.1L18,201.3
	c-1.4-0.6-2.4-1.6-3-3c-0.6-1.4-0.6-2.8,0-4.2l8.2-19.7c0.6-1.4,1.6-2.4,3-3c1.4-0.6,2.8-0.6,4.2,0l18.1,7.5
	c3.2,1.4,6.9,0.2,8.8-2.6c8.2-12.2,18.6-22.6,30.8-30.8c2.9-1.9,4-5.6,2.6-8.8l-7.5-18.1c-0.6-1.4-0.6-2.8,0-4.2
	c0.6-1.4,1.6-2.4,3-3l19.7-8.2c2.7-1.1,5.9,0.2,7,3l7.5,18.1c1.5,3.7,5.8,5.4,9.4,3.9c3.7-1.5,5.4-5.8,3.9-9.4l-7.5-18.1
	c-4.2-10.2-15.8-15-26-10.8l-19.7,8.2c-4.9,2-8.7,5.8-10.8,10.8c-2,4.9-2,10.3,0,15.3l5.3,12.7c-10.1,7.4-19,16.3-26.5,26.5
	l-12.7-5.3c-4.9-2-10.3-2-15.3,0c-4.9,2-8.7,5.8-10.8,10.8l-8.2,19.7c-2,4.9-2,10.3,0,15.3c2,4.9,5.8,8.7,10.8,10.8l12.7,5.3
	c-1.9,12.5-1.9,25,0,37.4l-12.7,5.3c-10.2,4.2-15,15.8-10.8,26l8.2,19.4c4.2,10.2,15.8,15,26,10.8l12.7-5.3
	c7.4,10.1,16.3,19,26.5,26.5L69.6,353c-2,4.9-2,10.3,0,15.3c2,4.9,5.8,8.7,10.8,10.8l19.7,8.2c10.2,4.2,21.8-0.6,26-10.8l5.3-12.7
	c12.5,1.9,25,1.9,37.4,0l5.3,12.7c3.2,7.7,10.6,12.3,18.4,12.3c2.6,0,5.1-0.5,7.6-1.5l19.7-8.2c10.2-4.2,15-15.8,10.8-26l-5.3-12.7
	c10.1-7.4,19-16.3,26.5-26.5l12.7,5.3c10.2,4.2,21.8-0.6,26-10.8l8.2-19.7c2-4.9,2-10.3,0-15.3c-2-4.9-5.8-8.7-10.8-10.8l-18.1-7.5
	c-3.7-1.5-7.9,0.2-9.4,3.9c-1.5,3.7,0.2,7.9,3.9,9.4l18.1,7.5c1.4,0.6,2.4,1.6,3,3c0.6,1.4,0.6,2.8,0,4.2L277,302.7z M277,302.7
	 M149.7,189.1c4,0,7.2-3.3,7.2-7.3s-3.3-7.2-7.3-7.2h-0.1c-17.1,0.2-33.1,6.9-45.1,19C92.4,205.8,85.8,222,86,239
	c0.2,17.1,6.9,33.1,19,45.1c12.1,11.9,28,18.4,44.9,18.4h0.5c17.1-0.2,33.1-6.9,45.1-19c12-12.2,18.6-28.3,18.4-45.4
	c0-4-3.3-7.2-7.3-7.2h-0.1c-4,0-7.2,3.3-7.2,7.3c0.1,13.2-5,25.7-14.2,35.1c-9.3,9.4-21.7,14.6-34.9,14.7h-0.4
	c-13,0-25.4-5-34.7-14.2c-9.4-9.3-14.6-21.7-14.7-34.9c-0.1-13.2,5-25.7,14.2-35.1C124.1,194.5,136.5,189.2,149.7,189.1L149.7,189.1
	z M149.7,189.1 M375.7,139.8c9,0,16.5-7.4,16.5-16.5v-15.4c0-9-7.4-16.5-16.5-16.5h-8.4c-2.2-8-5.3-15.7-9.4-22.8l6-6
	c6.4-6.4,6.4-16.9,0-23.3l-11-11c-3.1-3.1-7.3-4.8-11.6-4.8c-4.4,0-8.6,1.7-11.6,4.8l-6,6c-7.2-4.2-14.8-7.4-22.8-9.4v-8.5
	c0-9-7.4-16.5-16.5-16.5h-15.5c-9,0-16.5,7.4-16.5,16.5V25c-8,2.2-15.7,5.3-22.8,9.4l-6-6c-3.1-3.1-7.3-4.8-11.6-4.8
	c-4.4,0-8.6,1.7-11.6,4.8l-11,11c-6.4,6.4-6.4,16.9,0,23.3l6,6c-4.2,7.2-7.4,14.8-9.4,22.8h-8.5c-9,0-16.5,7.4-16.5,16.5v15.5
	c0,9,7.4,16.5,16.5,16.5h8.5c2.2,8,5.3,15.7,9.4,22.8l-6,6c-6.4,6.4-6.4,16.9,0,23.3l11,11c3.1,3.1,7.3,4.8,11.6,4.8
	c4.4,0,8.6-1.7,11.6-4.8l6-6c7.2,4.2,14.8,7.4,22.8,9.4v8.5c0,9,7.4,16.5,16.5,16.5h15.5c9,0,16.5-7.4,16.5-16.5v-8.6
	c8-2.2,15.7-5.3,22.8-9.4l6,6c3.1,3.1,7.3,4.8,11.6,4.8c4.4,0,8.6-1.7,11.6-4.8l11-11c6.4-6.4,6.4-16.9,0-23.3l-6-6
	c4.2-7.2,7.4-14.8,9.4-22.8H375.7z M354.4,131.2c-2,10.2-6,19.8-11.8,28.6c-1.9,2.9-1.5,6.7,0.9,9.1l10.1,10.1c0.8,0.8,0.8,2,0,2.8
	l-11,11c-0.5,0.5-1,0.6-1.4,0.6c-0.4,0-0.9-0.1-1.4-0.6l-10.1-10.1c-2.5-2.5-6.3-2.8-9.1-0.9c-8.7,5.8-18.3,9.8-28.6,11.8
	c-3.4,0.6-5.8,3.7-5.8,7.1V215c0,1-0.9,1.9-1.9,1.9h-15.5c-1,0-1.9-0.9-1.9-1.9v-14.2c0-3.4-2.5-6.4-5.8-7.1
	c-10.2-2-19.8-6-28.6-11.8c-1.2-0.8-2.6-1.2-4-1.2c-1.8,0-3.8,0.7-5.1,2.2l-10.1,10.1c-0.5,0.5-1,0.6-1.4,0.6
	c-0.4,0-0.9-0.1-1.4-0.6l-11-11c-0.8-0.8-0.8-2,0-2.8l10.1-10.1c2.5-2.5,2.8-6.3,0.9-9.1c-5.8-8.7-9.8-18.3-11.8-28.6
	c-0.6-3.4-3.7-5.8-7.1-5.8h-14.2c-1,0-1.9-0.9-1.9-1.9v-15.6c0-1,0.9-1.9,1.9-1.9h14.2c3.4,0,6.4-2.5,7.1-5.8
	c2-10.2,6-19.8,11.8-28.6c1.9-2.9,1.5-6.7-0.9-9.1l-10.1-10.1c-0.5-0.5-0.6-1-0.6-1.4c0-0.4,0.1-0.9,0.6-1.4l10.9-11
	c0.5-0.5,1-0.6,1.4-0.6c0.4,0,0.9,0.1,1.4,0.6l10.1,10.1c2.5,2.5,6.3,2.8,9.1,0.9c8.7-5.8,18.3-9.8,28.6-11.8
	c3.4-0.6,5.8-3.7,5.8-7.1V16.5c0-1,0.9-1.9,1.9-1.9h15.5c1,0,1.9,0.9,1.9,1.9v14.2c0,3.4,2.5,6.4,5.8,7.1c10.2,2,19.8,6,28.6,11.8
	c2.9,1.9,6.7,1.5,9.1-0.9l10.1-10.1c0.5-0.5,1-0.6,1.4-0.6c0.4,0,0.9,0.1,1.4,0.6l11,11c0.8,0.8,0.8,2,0,2.8l-10.1,10.1
	c-2.5,2.5-2.8,6.3-0.9,9.1c5.8,8.7,9.8,18.3,11.8,28.6c0.6,3.4,3.7,5.8,7.1,5.8h14.2c1,0,1.9,0.9,1.9,1.9v15.5c0,1-0.9,1.9-1.9,1.9
	h-14.2C358,125.4,355,127.8,354.4,131.2L354.4,131.2z M354.4,131.2 M276.5,69.1c-25.7,0-46.5,20.9-46.5,46.5
	c0,25.7,20.9,46.5,46.5,46.5c25.7,0,46.5-20.9,46.5-46.5C323,90,302.1,69.1,276.5,69.1L276.5,69.1z M276.5,147.6
	c-17.7,0-32-14.3-32-32c0-17.7,14.3-32,32-32c17.7,0,32,14.3,32,32C308.5,133.3,294.1,147.6,276.5,147.6L276.5,147.6z M276.5,147.6"
	/>
</svg>
